# xmcd CD database file
#
# Track frame offsets:
#	150
#	16147
#	26815
#
# Disc length: 602 seconds
#
# Revision: 0
# Processed by: cddbd v1.5.1PL0 Copyright (c) Steve Scherf et al.
# Submitted via: CDex 1.51
#
DISCID=19025803
DTITLE=東京事変 - 群青日和
DYEAR=2004
DGENRE=Rock
TTITLE0=群青日和
TTITLE1=その淑女ふしだらにつき
TTITLE2=顔
EXTD=YEAR: 2004
EXTT0=
EXTT1=
EXTT2=
PLAYORDER=
